<svg xmlns="http://www.w3.org/2000/svg" width="1400" height="900" viewBox="0 0 1400 900">
  <defs>
    <linearGradient id="bg" x1="0" y1="0" x2="1" y2="1">
      <stop offset="0" stop-color="#06070a"/>
      <stop offset="0.45" stop-color="#11131a"/>
      <stop offset="1" stop-color="#272a32"/>
    </linearGradient>
    <radialGradient id="glow" cx="70%" cy="30%" r="50%">
      <stop offset="0" stop-color="#d8c15d" stop-opacity="0.45"/>
      <stop offset="1" stop-color="#d8c15d" stop-opacity="0"/>
    </radialGradient>
    <filter id="shadow" x="-20%" y="-20%" width="140%" height="160%">
      <feDropShadow dx="0" dy="34" stdDeviation="30" flood-color="#000" flood-opacity="0.62"/>
    </filter>
  </defs>
  <rect width="1400" height="900" fill="url(#bg)"/>
  <rect width="1400" height="900" fill="url(#glow)"/>
  <text x="82" y="98" fill="#d8c15d" font-family="Montserrat, Arial, sans-serif" font-size="34" font-weight="900" letter-spacing="6">TECNOSERVWJ</text>
  <text x="82" y="160" fill="#ffffff" font-family="Montserrat, Arial, sans-serif" font-size="54" font-weight="900">RENDIMIENTO GAMING</text>
  <text x="82" y="215" fill="#b8c0cf" font-family="Montserrat, Arial, sans-serif" font-size="30" font-weight="600">8GB DDR5 • 512GB SSD PCIe 4.0</text>
  <g filter="url(#shadow)" transform="translate(70,10)">
    <rect x="330" y="260" width="740" height="425" rx="36" fill="#0a0d13" stroke="#ffffff" stroke-opacity="0.23" stroke-width="8"/>
    <rect x="365" y="295" width="670" height="350" rx="22" fill="#111827"/>
    <rect x="400" y="330" width="600" height="280" rx="18" fill="#08090d"/>
    <path d="M410 610 L995 335" stroke="#d8c15d" stroke-width="10" opacity="0.26"/>
    <path d="M480 685 L920 685 L1038 780 L362 780 Z" fill="#1c202a" stroke="#ffffff" stroke-opacity="0.16" stroke-width="7"/>
    <path d="M430 780 L970 780" stroke="#d8c15d" stroke-width="12" stroke-linecap="round"/>
    <rect x="590" y="715" width="220" height="24" rx="9" fill="#ffffff" opacity="0.14"/>
  </g>
  <g>
    <rect x="920" y="130" width="360" height="70" rx="35" fill="#d8c15d"/>
    <text x="955" y="176" fill="#090a0d" font-family="Montserrat, Arial, sans-serif" font-size="28" font-weight="900">RTX 3050 6GB</text>
  </g>
  <text x="82" y="815" fill="#e5e7eb" font-family="Montserrat, Arial, sans-serif" font-size="24" font-weight="700">Imagen referencial del producto para catálogo</text>
</svg>